<?xml version="1.0" encoding="utf-8"?>
<!-- Generator: Adobe Illustrator 19.0.0, SVG Export Plug-In . SVG Version: 6.00 Build 0)  -->
<svg version="1.1" id="Layer_1" xmlns="http://www.w3.org/2000/svg" xmlns:xlink="http://www.w3.org/1999/xlink" x="0px" y="0px"
	 viewBox="0 0 1096 780" style="enable-background:new 0 0 1096 780;" xml:space="preserve">
<style type="text/css">
	.st0{fill:#414042;}
</style>
<g>
	<g>
		<path class="st0" d="M605.9,506.3c0.2,1.7,0.7,3.3,0.6,5.1c-0.1,2.4-0.6,5.4-1.1,7.8c-2.1,10.5-8.7,19.6-10.7,30.1
			c2.9,4,3.1,9.2,3.1,14.1c0.1,7.1,0.1,14.6-3.2,20.9c-1.2,2.2-2.7,4.2-4.2,6.2c-4.1,5.3-8.2,10.3-12.3,15.6
			c-0.5,4.6-0.3,9.3,0.6,13.8c0.3,1.6,0.7,3.2,0.2,4.8c-0.7,2-2.6,3.5-4.4,4.4c3.6,4.8,5.8,10.3,7.7,16c5.1,4,11.4,7.1,15.4,12.3
			c1.5,2,2.6,4.2,3.7,6.4c5,10.1,10.7,22.3,21.1,27.9c2.3,1.3,4.5,2.8,6.5,4.7c2.3,2.1,4.3,5.4,2.9,8.2c-0.6,1.3-1.8,2.1-2.9,3
			c-6.6,5-10,12.7-16.5,17.8c-3.4,2.7-8.1,3.1-12.5,3.2c-3.6,0.1-7.1,0.4-10.7,0.3c-0.8-1.8-0.3-4.1,1.2-5.4c0.5-0.4,1-0.8,1.5-1.1
			c1.8-1.1,3.5-1.8,5.3-2.9c2.1-5.3,2.9-11.1,2.4-16.8c-1.3,2.7-2.7,5.4-4.7,7.6c-3.5,3.8-8.6,5.7-13.6,7.2c-2,0.6-4,1.1-6.1,1.1
			c-0.6-1.7-0.2-3.6,0.3-5.4c0.4-1.6,0.8-3.1,1.3-4.7c1.4-5.2,2.9-10.1,1.4-15.3c-0.8-2.5-1.5-5-2.3-7.6c-0.1-0.5-0.3-1-0.1-1.5
			c0.2-0.5,0.7-0.8,1.1-1c0.9-0.5,1.6-0.9,2.6-1.4c-2.1-2.7-4.4-5.3-6.8-7.8c-3.6-3.6-7.6-6.8-11.3-10.3c-2.5-2.4-4.9-4.9-7.1-7.6
			c-1.7-2-4.9-4.7-5.6-7.3c-0.2-0.8-0.2-1.6-0.4-2.3c-0.8-2.8-2.1-4.3-4.4-6.1c-3.9-3.1-7.4-6.7-10.5-10.6c-1.2-1.6-2.5-3.3-2.7-5.4
			c-0.3-1.9,0.3-3.8,0.9-5.6c0.4-1.2,1.6-2.4,1.5-3.7c-0.9-12.1-4.2-24.4-4-36.5c0.1-5.1,0.2-10.1,0.3-15.2c0-0.7,0-1.4-0.2-2
			c-0.3-0.9-1-1.6-1.5-2.3c-2-2.6-2.7-6.3-1.8-9.4c-4.7-2.4-7.7-7.2-9.8-12.1c-2.1-4.9-3.7-10-6.8-14.3c-1-1.4-2.2-2.3-3.5-3.4
			c-1.7,3-4.2,5.5-7.3,7c-1.6,5.1-5.2,9.6-9.3,13c1,4.7-5.3,14.2-10.9,11.5c-1.1-0.5-1.8-1.5-2.5-2.6c-1.1-1.8-2.1-3.6-2.9-5.6
			c-1-2.3-1.7-4.8-1.2-7.2c0.6-3,2.8-3.9,5.1-5.4c3.5-2.2,2.2-3.8,2.1-7.7c-0.1-3.1,0.8-6.1,2.9-8.4c-0.7-0.6-1.2-1.2-1.6-2
			c1.1-3.4,5.9-3.7,5.8-7.3c-0.1-2.6-0.1-5.1-0.2-7.7c-0.1-5-0.3-10.1,1.2-14.9c3-9.6,11.6-16.5,20.5-21.1c-0.9-2-1.8-3.6-2.7-5.6
			c-1.2,0.6-2.7,0-3.6-1c-0.9-1-1.3-2.3-1.7-3.6c-0.4-1.3-0.8-2.6-1.1-3.8c-0.2-0.8-0.5-1.7-0.3-2.6c0.2-0.9,1-1.6,1.8-1.5
			c0.1-3.6,1.3-6.1,0.7-9.7c-0.7-4.4,1.4-8.9,4.8-11.7c3.4-2.9,7.7-4.3,12.1-4.9c4.1-0.6,7.7,1.8,11.1,4c2,1.3,4.2,2.7,5.1,4.9
			c0.6,1.3,0.6,2.8,0.7,4.3c0.1,3,0.2,6.1,0.3,9.1c0.9-0.4,1.9,0.4,2.5,1.1c0.6,0.7,0.9,1.7,0.9,2.7c0.2,3-1.3,6.1-3.7,7.9
			c0.4,1.9,1.1,3.9,2,5.6c2.7,0.5,5.7,1.4,8.5,1.9c2.3,0.4,4.7,0.9,7,0.7c3.1-0.2,5.9-1.5,8.9-2.2c4.3-1.1,7.3-0.2,11.3,1.5
			c2.2,0.9,4.3,2.2,5.9,3.9c0.7,0.8,1.3,1.6,2,2.4c3.7,4.4,7.8,8.4,11.7,12.5c5.9,6.1,11.4,11,18.5,15.4c0.5,0.3,1,0.7,1.1,1.2
			c0,0.3-0.1,0.6-0.1,0.8c-1,2.9-3.3,5.1-4.7,7.8C605.8,503.9,605.8,505.1,605.9,506.3z"/>
		<g>
			<path class="st0" d="M261.3,421.7c0,0,8.6-6.4,16.4-4.3c7.8,2.1,19.3,12.1,17.1,25.7c0,0,0,5-3.9,10c0,0,10.3,7.8,13.2,8.9
				c2.9,1.1,14.6,5.3,14.6,5.3s8.2,1.1,24.6,6.1s22.5,5.7,23.9,5.7c1.4,0,18.5-0.4,21.4,1.8c2.9,2.1,9.6,5.7,9.6,13.9
				c0,8.2-12.5-5-17.1-5c0,0-10.3,4.3-17.5-2.1c0,0-37.8,2.5-49.6-0.7l-3.6,0.4l-7.1,6.8c0,0-17.1-5-27.8-11.1
				c0,0-13.9,1.1-28.2,21.7c0,0-0.7,22.8-3.2,32.1c0,0,0.7,6.8,13.9,23.9c13.2,17.1,26.7,53.5,26.7,58.1c0,4.6,0,28.5-5.3,49.2
				c-5.3,20.7-3.2,39.2-3.2,39.2s8.2,5.7,17.1,8.9c8.9,3.2,10.7,5,10.7,12.5c0,0-36.4,1.1-56.3-3.6c0,0,0-7.1,3.9-15.3
				c3.9-8.2,7.1-15.7,2.9-37.1c-4.3-21.4-0.7-35.7,3.6-46c0,0-11.8-12.8-33.2-29.2l-7.1,1.8l-4.3-4.3c0,0-1.1,9.6-7.5,23.5
				c-6.4,13.9,0.4,39.2,0,45.6c-0.4,6.4,2.1,32.4-8.6,32.4c-10.7,0-18.2-17.8-18.9-27.8c-0.7-10,5-18.9,6.1-29.6
				c1.1-10.7-6.4-25.7,0.4-46.7l-4.3-7.5c0,0-3.9,1.4-12.1-15.7c-8.2-17.1-13.2-17.5-11.4-27.5c0,0-6.8-6.4,7.8-23.2
				c0,0,1.1-9.3,11.4-23.5c10.3-14.3,6.8-19.6,6.8-19.6l-3.2-2.9l-20,1.4c0,0-6.4,8.6-15.7,18.2c-9.3,9.6-16,28.5-16,28.5
				s-0.7,10,0,12.8c0.7,2.9-6.4,3.6-6.4,3.6s-8.6,5.7-10.7,5.7s-5.7-13.9-5.7-18.2c0-4.3,12.5-13.9,14.3-17.1
				c1.8-3.2,20.3-46.7,27.8-52.4c7.5-5.7,33.2-10,49.2-13.9c16-3.9,32.1-9.6,39.2-8.6c7.1,1.1,9.3,1.4,9.3,1.4l10-3.9
				C255.2,430.3,257,424.2,261.3,421.7z"/>
			<circle class="st0" cx="186" cy="701.3" r="27.5"/>
		</g>
		<g>
			<path class="st0" d="M935.2,538.1c0.1,0,0.3,0,0.4-0.1c2.5-0.6,3.2-2,6.1-2.1c2.9-0.1,5.8,0.8,8.7,0.9c5.7,0.2,11.3-1.2,17-0.9
				c7.5,0.4,14.7,3.9,19.9,9.3c4.3,4.5,4.9,11.6-2.5,13.2c-4.6,1-8.6,0.9-13-0.4c-4.2-1.3-9.1-3.5-13.5-2
				c-5.5,1.8-11.7,1.7-17.2-0.3c-2-0.7-4-1.8-6.1-2.2c-1.9-0.4-3.9-0.3-5.9-0.2c-5.3,0.3-10.7,0.6-15.6,2.7
				c-2.1,0.9-4.1,2.1-6.3,2.9c-2.8,1-5.7,1.2-8.7,1.3c-6,0.4-12.2,1.1-18.2,1.5c-3.6,3.9-7.9,10.8-10.1,15.7
				c-6.2,0.5-14.2-2.3-19.4,1.2c-6.4,4.3-13.1,8.9-16.2,16c-1.1,2.5-1.7,5.3-2.5,8c-2.5,8.3-7.2,16.2-13.3,22.4
				c-6.9,0.9-13.2,1.2-20.1,1.8c-0.3,0-0.6,0.1-1,0.1c-1.6,1.7-3.5,3.6-5.1,5.2c2.2,9,4.4,17.9,6.6,26.9c0.5,2.2,1.1,4.4,1.3,6.7
				c0.3,3.4,0.6,22.6,3,29.2c1.9,5.2,4.4,10.1,6.1,15.3c1.7,5.2,3.4,11.3,1.9,16.6c-3.8,0.9-7.7,1.3-11.6,1.2
				c-3.7-0.1-7.4-0.7-11.2-0.8c-12.8-0.6-26.5,4.4-38.4-0.3c-0.7-2.9,1.1-6,3.5-7.7c2.4-1.8,5.4-2.7,8.2-3.8
				c8.5-3.4,16-9.7,22.8-15.9c-3-14.6-10.7-27.2-14.9-41.2c-2.6-8.6-5.2-17.3-6.1-26.3c-0.7-7.2,4.2-15,7.1-21.5
				c1.5-3.3,18.8-36.7,21.7-35c-9.8-5.6-16.1-17-15.6-28.3c0.1-2.8,0.6-5.5,0.8-8.3c0.3-5.2-0.5-10.4-2.4-15.2
				c-0.8-2.1-1.9-3.6-2.1-5.9c-5.6,1.9-11.4,3.9-17.4,3.9c-4.1,0-8.1-0.8-12-1.7c-3.7-0.8-7.2-1.9-11-1.4c-2.8,0.4-5.6,0.8-8.3,0.4
				c-2.8-0.3-5.5-1.5-7.3-3.7c-0.5-0.6-0.8-1.3-1.2-1.9c-1-1.7-1.3-2.8-2.3-4.5c-1.3-0.6-1.6-2.6-0.6-3.6c0.4-0.4,0.8-0.6,1.3-0.8
				c3-1.4,6.4-2.6,9.5-1.7c1.9,0.6,3.4,1.9,4.9,3.1c1.2,1,2.8,2,4,3c5.5-0.3,11-1.4,16.2-3.3c4-1.4,8.3-3.3,12.3-1.9
				c1.7-2,4.8-3.3,6.3-5.5c2.6-3.9,2.6-9,2.5-13.7c-0.1-2.5-0.1-4.9-0.2-7.4c-0.1-2.7,0-5.8,2.2-7.3c-1.9,0.4-4-0.6-5.3-2
				c-1.3-1.5-2.1-3.4-2.8-5.2c-0.9-2.3-1.8-4.6-2.7-7c-0.4-0.9-0.7-1.9-0.8-2.9c-0.4-4.1-0.7-7.9-1.2-12.1c-0.3-3-2.3-5.6-2.5-8.7
				c-0.1-1.9,0.9-3.8,2.2-5.2c1.4-1.4,3-2.3,4.7-3.3c4.1-2.3,8.5-4.9,13.1-6c1.9-0.5,3.9-0.2,5.9,0.1c2.9,0.5,6,1.1,7.9,3.3
				c0.8,0.9,1.3,1.9,1.8,3c1.4,2.8,3.8,4.8,4.8,7.7c0.2,0.7,0.2,1.4,0.2,2.1c-0.1,2-1,4.6-0.7,6.6c0.3,1.9,2.1,3.1,1.4,5.4
				c-0.3,0.9-0.8,1.6-1.3,2.4c-1.2,1.8-2,3.8-2.4,6c2.8,0.8,5.7,1.6,8.6,1.5c3.5-0.1,7.5-0.6,9.8,1.9c0.7,0.8,1.2,1.8,1.9,2.5
				c1.4,1.3,3.6,1.4,5.5,1.6c5.3,0.5,10.4,2.6,14.5,5.9c13.9,1.9,25.7,5.1,37.4,12.9c3-0.2,4.4-1.4,7.4-1.6c2.1-0.1,6.5,1.6,8.5,2.2
				c2.9,0.9,5,3.3,6.8,5.7c1.6,2.1,1.9,10,1.7,10.5c-1.7,3.8-6.3,0-10.3,1c-1.1,0.3-2.3,0.6-3.5,0.3c-1.5-0.3-2.6-1.5-3.6-2.5
				c-1.9-1.8-3.9-3.7-6.4-4.4c-12.1-3.1-41.9-6.3-45.6-6.2c-0.2,0,1.6,11.7,3.1,18.4c0.5,2,3.2,6.4,3.9,8.4
				c1.7,4.7,4.5,8.9,7.4,13.1c0,0.4-0.1,1,0.2,1.1c4.5,1.5,9.3,1.6,13.9,2.4c4.7,0.8,9.5,2.4,12.3,6.2c0.4,0.6,0.9,1.3,1.5,1.6
				c0.5,0.2,1.1,0.3,1.7,0.3c1.9,0,3.7,0.1,5.6,0.1c3.3-2.5,7.2-5.2,11.4-5.5c4.6-0.4,9.8,1.7,14.4,2.7c9.8,2.1,19.4,2.8,29.2,4.2
				C933.3,538.1,934.3,538.2,935.2,538.1z"/>
			<circle class="st0" cx="747.1" cy="562.9" r="24.7"/>
		</g>
	</g>
	<g>
		<g>
			<path class="st0" d="M1005.4,272c-0.3-1.8-0.4-3.7-0.1-5.5c0.2-1.5,0.7-3.1,1.7-4.2c1.7-1.9,4.5-2.4,7-1.9
				c2.5,0.5,4.7,1.9,6.9,3.2c4.5,2.8,8.9,5.6,13.4,8.4c5.5,3.4,10.3,7.8,13.1,13.7c1.3,2.8,4.4,9.1,1.5,11.7
				c-4,3.6-15.4-1.6-19.5-3.3c-5.1-2.1-10.9-8.1-16.9-6.1c-3,1-6.3,5.2-8.8,7.1c-3.2,2.5-6.4,4.9-9.9,7c-4,2.4-8.2,4.6-12.8,5.1
				c-18.3,2.3-27.9-21.3-34.4-34.7c-0.5-1-0.9-1.8-1.4-2.8c-5.9-2-12-3.1-18.2-3.5c-1.7-2.2-2.9-4.2-3.9-6.8
				c-2.6,2.3-5.1,4.6-7.7,6.9c-0.2,0.2-0.5,0.4-0.8,0.6c-1.5,0.6-2.8-2.1-4.4-2.2c-3.1,2.7-6.6,5-10.3,6.8c-2.3,1.1-4.6,2-7,2.9
				c-5.2,2-12.1,4.3-17.3,6.3c4.8,7.2,5.1,16.5,4.4,25.2c-0.9,12.2-2,22.8,3,34.3c0.7,1.6,1.5,3.2,2.1,4.9c0.5,1.7,0.8,3.4,0.9,5.2
				c0.2,3.7-0.8,7.6-2.1,11c-0.1,0-0.3,0-0.4,0c-10.2,1.1-20.5,2.2-30.7,1.5c-10.2-0.7-19-3.6-27.5-9.3c0.1-2,0.9-3.9,2.3-5.3
				c1.8-1.8,4.4-2.6,6.8-3.3c3.7-1,7.3-2.1,11-3.1c2.7-0.8,5.5-1.6,8-3c2.5-1.4,4.8-4,5.6-6.7c-3.1-8.5-4.5-17.5-5.9-26.5
				c-2.4-15.7-5.5-31.2,2.6-45.5c7.2-12.8,17.3-23.7,26.3-35.2c1.8-2.3,5-3.7,5-6.6c0-12.2,0.1-24.3,0.1-36.5
				c0-11.6,0.8-24.4-5.6-34.2c-1.4,2.4-2.1,5.1-2.2,7.8c-1.9-0.7-4.1-1-6-1.7c-0.2,6-3.1,11.8-7.9,15.5c-1.6,1.2-3.4,2.2-5.4,2.4
				c-2,0.2-3.4-1.3-5-2.4c-3-2-4.4-5.8-4.3-9.4c0.1-3.7,2.6-6.9,2.9-10.3c0.2-2.3-2.1-4.8-0.2-7c0.6-0.7,1.4-1.2,2.2-1.8
				c4.2-2.9,6.3-7.9,9.1-12c3.9-5.7,7.7-11.3,12.2-16.5c1.9-2.2,3.8-4.4,6.3-5.9c5.3-3.3,12-3.5,18.2-3.3c-2.9-4-3.4-9.3-3.8-14.2
				c-0.3-4.2,0.1-10-2.3-13.7c-1-1.4-2.1-2.8-2.5-4.5c-0.6-2.8,1.1-5.6,3-7.7c2.5-2.9,5.6-5,7.5-8.4c1.4-2.5,4.6-3.9,7.3-3
				c2.7,0.8,4.9,2.2,7.6,2.9c5.2,1.3,8.3,3.9,12,7.8c1,1,2,2.1,2.5,3.4c1.1,2.9-0.9,9.6-2.3,12.5c0.8,0.1,1.6,0.5,2,1.3
				c0.4,0.8,0.3,1.7,0.3,2.6c-0.1,1.9-0.1,3.8-0.9,5.5c-0.8,1.7-2.4,3.2-4.2,3.2c-0.6,2.6-1,5.3-1.1,8.1c6.4-0.2,12.1,2.2,18,4.7
				c7.2,3.1,16.7,5.3,22.2,11.3c1.3,1.4,2.4,3.1,3.6,4.6c8.4,11.4,22.7,15.7,29.4,28c6.3,11.6,14.8,35.9,19,34.7
				c2.6-1,5.7,0.4,7.9,2.1c2.2,1.7,4.1,3.7,6.7,4.7c1.4,0.6,3,0.7,4.4,1.3c1.4,0.5,2.9,1.6,3.2,3.1c0.3,1.2-0.2,2.5-1,3.5
				c-1.8,2.6-5,3.9-8.2,4.1c-3.1,0.3-6.3-0.4-9.4-1c-3.4-0.7-6.9-1.4-10.3-2.1c-3.9-0.8-5-5.6-6.6-9.4
				c-5.6-13.4-13.9-25.7-24.3-35.9c-3.4-3.4-7.8-5.3-11.9-7.9c-5.2-3.3-11-6.8-17.1-5.8c-0.1,7.1,0,13.2,1.2,20.2
				c3.9,22.7,17,41,15.5,64.1c-1.2,19.2,5.6,38,14.8,54.9c0.8-0.8,1.2-1.1,2.1-1.8C991.3,271.7,998.6,271.8,1005.4,272z"/>
			<circle class="st0" cx="900.8" cy="335.7" r="23.9"/>
		</g>
		<g>
			<path class="st0" d="M728.4,173.3c3.2,2.2,6.8,4.3,10.3,5.9c1.4,2,2.2,4.4,2.5,6.8c0.1,0.6,0.1,1.2,0.3,1.8
				c0.2,0.7,0.7,1.2,1,1.9c1.6,3.1,0.1,6.8-1.4,9.9c-0.2,0.4-0.4,0.8-0.8,1c-0.3,0.1-0.6,0.1-0.9,0.1c-1.1,0-2,0.2-3,0.2
				c-0.6,1-2.1,1.2-3.1,0.7c-1.1-0.5-1.8-1.5-2.6-2.4c-2.6-3.1-5.7-5.7-9.2-7.7c-1.5-5-3-10-5.3-14.7c-2.1-4.3-4.9-8.3-7.7-12.2
				c-3.6-5-8.2-9.7-11.8-14.7c-0.3,2.8-1.2,5-1.8,7.7c2.4,3,4.5,6.3,6.1,9.8c0.6,1.2,1.1,2.5,1.2,3.9c0.1,2.1-0.9,4.2-0.7,6.3
				c0.1,1.1,0.6,2.1,0.8,3.2c0.1,1.1-0.5,2.5-1.6,2.9c3.3,5.9,5.3,12.5,5.9,19.2c0.7,7.6-0.5,15.2-1.1,22.8
				c-0.8,10.3-1.6,20.6-2.4,30.9c-0.2,2.3-0.3,4.6,0.4,6.7c0.8,2.5,2.7,4.4,4.2,6.5c1.5,2.1,3.2,5.1,2.6,7.6
				c14.3,3.2,18.7,19.4,36.8,30.9c3.4,0.9,6.9,1.3,10.4,1.1c1.7-0.1,3.4-0.3,4.8,0.6c0.8,0.5,1.3,1.3,1.8,2c2.9,4,4.1,8.5,6.8,12.5
				c2.2,3.2,5.3,5.6,7.2,8.9c3,5.4,2.1,12.1,1.1,18.3c-0.1,0.8-0.3,1.8-1.1,2.2c-0.5,0.3-1.2,0.3-1.8,0.1c-5.1-1-8.8-5.3-11.6-9.6
				c-3.4-5.1-7.1-12.3-13.7-13.6c-0.9-0.2-2-0.3-2.6-1c-0.5-0.7-0.5-1.6-0.2-2.4c0.3-0.8,0.4-1.1,1-1.7c-3.6-2.4-7.4-4.6-11.4-6.4
				c-8.9-4.3-18.7-7-28.2-9.9c-0.2,1-0.4,1.6-0.5,2.6c-0.4,4.6-0.9,9.2-0.3,13.7c0.5,3.9,1.7,7.9,0.4,11.6c-0.7,1.9-2,3.5-3,5.3
				c-2,3.3-3,7.2-2.9,11.1c0,2.4,0.4,5-1,6.8c-1.3,1.7-3.7,2.1-5.8,2.3c-5.5,0.4-11.3-0.4-16.6-1.9c0-10.9,5.5-20.9,11.1-30.2
				c-0.4-8.1,0-30.5-8.8-41.7c-3.2-4.1-6.9-7.7-9.8-12c-3.5-5.2-6.8-10.7-10.5-15.9c-0.8,0.4-1.7,1.1-2.6,1.5
				c-11.9-16.7-22.4-34.3-29.9-53.4c-7.9-5.3-5.8-14.6-6.4-22.8c-0.7-9.7-2.3-19.3-4.4-28.8c-0.8-3.7-2.6-7-4.4-10.3
				c-2.8,4-5.5,8-8.3,11.9c-0.9,1.3-1.2,2.2-2.6,3.1c-3.6,18.7-4.5,38.2,1.4,56.3c-1.2,4.6-2.9,9.1-5.1,13.3c-0.6,1.3-1.5,2.6-2.8,3
				c-1.6,0.5-3.4-0.1-4.8-1.1c-1.2,0.1-1.9-1.2-2.3-2.3c-0.5-1.3,0.2-2-0.8-3c-1.4-1.5-2.8-3.1-3.4-5.1c-0.5-1.9-0.2-3.8,0.2-5.7
				c0.6-2.8,2.8-5.4,2.5-8.3c-0.6-5.2-1.3-10.4-1.9-15.7c-1.6-12.8-3.1-25.5-0.7-38.2c-1-0.9-1.4-2.9-1.1-4.3
				c9.2-9.4,11.5-23.7,15.4-35.8c0.7-2.1,1.4-4.3,2.6-6.2c1.5-2.4,3.7-4.3,5.9-6.1c4.9-4,10.7-7.2,16.1-10.5
				c-1.6-4.1-1.9-8.3-3.1-12.4c-0.9-3-4-5.6-3.5-9c0.5-2.8,3.3-4.5,4.7-6.9c1.5-2.5,2.2-5,4.6-7c3.1-2.5,6.4-5.1,10.3-6.2
				c6.4-1.7,15.1,2.1,18.8,7.4c1.3,2,2.2,4.2,3.1,6.4c0.6,1.5,1.2,3.1,1.8,4.6c0.9,2.3,1.9,4.7,2,7.2c0.2,3.2-1,6.4-0.9,9.6
				c7.9-1.3,15.5,4.3,23.6,4.2c1.6,0,3.3-0.3,4.9,0.1c1.5,0.4,2.8,1.3,4,2.2c2.8,2.3,5.3,4.9,7.4,7.9c1.1,1.5,2.5,3.3,3,5.1
				c0.2,0.7,0.3,1.5,0.6,2.2c0.3,0.5,0.6,0.9,0.9,1.4c1.2,2.2-0.5,4.8-0.6,7.2c-0.1,3.3,2.4,6,4.3,8.7c0.5,0.7,0.9,1.5,1,2.3
				c0.1,1.3-0.8,2.3-1.7,3.2c2.7,3.6,5.8,7.6,7.4,11.8c0.8,2.1,1.3,4.3,1.8,6.5C721.5,158,721.3,168.4,728.4,173.3z"/>
			<circle class="st0" cx="669.2" cy="338.5" r="24.5"/>
		</g>
		<g>
			<path class="st0" d="M286.6,135c-7.2-7.8-13.6-20.2-23.5-23.9c-2-0.8-17.9-3.4-29.6-9.8c-3.7-2-13.2-6.9-17.3-5.7
				c-1.5,0.5-3.2,1.3-4.7,0.7c-0.6-0.3-1.1-0.7-1.6-1.1c-2.9-2.5-6.5-4-10.3-3.8c2.8-4.9,2.7-9.5,4.3-15c1.8-6.3-0.3-12.9-2.4-19.1
				c-0.4-1.1-0.8-2.3-1.7-3c-1-0.9-2.5-1-3.8-1.3c-1.4-0.4-3-1.1-4.5-1.3c-5.6-0.6-10.7-1.1-15.6,2.1c-3.1,2-5.9,4.7-7.7,7.9
				c-1.8,3.2-2.6,7.1-1.9,10.7c0,0.2,0.4,0.1,0.2,0.1c-0.9-0.2-2.3,0.4-2.7,1.2c-0.4,0.8-0.4,1.8-0.4,2.7c0,1.2,0,2.3,0.2,3.5
				c0.4,2.1,1.5,4.1,2.6,5.9c0.2,0.4,0.5,0.8,0.7,1.2c0.1,0.2,0.2,0.3,0.3,0.5c0.5,0.6,1.3,0.9,2.1,0.7c-0.2,0.8-0.9,1.7-1.1,2.5
				c-6.7,2.2-14.2,3.6-21,2.3c-2-0.4-3.9-1-5.9-1.3c-4.3-0.6-8.6,0.9-12.4,2.9c-1.7,0.9-3.4,2.5-5.3,3.2c-1.9,0.6-30.6,3.5-37.5,9.6
				c-5.3,4.7-10.8,13-15.2,18.5c-3.9,4.9-6.7,9.5-9.3,15c-2.9,1.5-6.3,3.2-8.9,5.2c-0.6,0.5-1.2,1-1.7,1.5c-0.9,1-1.5,2.2-2,3.4
				c-0.7,1.6-1.5,3.1-2.2,4.7c-0.4,0.9-0.9,1.9-1,2.9c2.5,1.2,3.1,4.2,5.4,5.8c2.5,1.8,5.8,1.9,8.8,1.4c0.2-1.7,0.5-3.4,0.7-5.1
				c0.4-2.6,1-5.6,3.2-7c0.8-0.5,1.7-0.6,2.5-1c0.2-0.1,0.5-0.2,0.7-0.1c0.4,0.1,0.5,0.5,0.6,0.8c0.5,1.4,0.9,2.8,1.4,4.1
				c1,0.1,2.1,0.3,2.8-0.4c0.7-0.6,0.9-1.6,0.8-2.6c-0.1-0.9-0.3-1.9-0.1-2.8c0.6-2.7-0.5-5.3,0.4-7.9c0.5-1.5,1.3-2.8,2.2-4.1
				c2.1-3.2,4.4-6.3,7.4-8.8c5.8-4.8,14-7.4,17.1-14.3c1.5,1.9,2.9,4,4.4,5.9c0.7,0.9,1.4,1.8,2.5,2.2c1,0.3,2.1,0.1,3.1,0
				c8.8-1.3,17.7,1.3,26,4.4c0.8,19.5,0.4,39.4-2,58.7c1.5,1.4,3.7,2.4,5.7,2.8c-0.2,1.3-0.8,3.1-0.8,4.4c-5.4,1.6-8.1,7.4-8.9,12.9
				c-1.6,11.2,2.2,23.1-1.6,33.8c-0.4,1-0.8,2.1-0.9,3.2c-0.2,1.7,0.4,3.3,1.2,4.8c1.9,3.7,5,6.8,8.7,8.6c0.4,4.1-1.7,8.2-4,11.7
				c-2.3,3.4-5.2,6.5-7.4,10c-6.5,10.7-5.6,24.3-4.4,36.8c-3.4,2.6-7.2,5.5-8.4,9.6c-1.9,6.4,0.7,12.4,0.6,18.8
				c0,1.9-0.2,3.8,0.2,5.7c0.4,1.9,1.3,3.7,2.9,4.7c0.8,0.5,1.8,0.7,2.7,0.9c5.3,0.9,9.3-2.7,11-7.6c1.2-3.5,1.5-7.3,2.7-10.8
				c1-3.1,2.6-5.9,3.5-8.9c1-3.1,1.2-6.6-0.4-9.3c1.7-2.5,3.6-5,5.4-7.5c1.8-2.6,3.6-5.2,4.9-8.1c2.3-5.1,2.1-10.1,2.8-15.5
				c0.7-5.3,3.8-10.8,5.9-15.8c4.7-11.2,9.7-22.3,15-33.2c5.2,6.2,10.6,12,15.8,18.3c3.2,3.9,6.5,7.8,8.2,12.5
				c3.5,0.7,7.3,0.4,10.6-1c5.1,3.4,9.1,8.3,11.5,13.9c-7.1,4.5-9.2,13.5-10.2,21.9c-0.3,2.9-0.6,5.8-1.6,8.5
				c-1.2,3.4-3.4,6.3-5.2,9.4c-1.7,3.1-3,6.8-2,10.3c1.1,3.9,4.3,6.5,7.8,8.4c3.5,1.9,7.5,3,11.4,3.9c1.4,7,8.7,11.3,15.7,12.5
				c2.2,0.4,4.6,0.5,6.8-0.2c2.1-0.8,4-2.6,4.2-4.9c0.1-1.2-0.3-2.4-0.7-3.6c-4-11.2-15-17.5-22.7-25.9c7.5-10.3,14.5-20.8,22-31.1
				c5.8-8,2.1-13.8-0.9-22.2c-3.2-9-6.6-17.9-10.1-26.7c-6.6-16.3-15-30.3-25.3-44.5c-0.8-1.1-1.6-2.3-2.1-3.6
				c-0.8-2.3-0.4-4.9-0.8-7.3c-1.8-10.1,5.1-20.4,7-30.5c1.4-7.9,2.9-15.9,4.3-23.8c1.5-1.3,3.2-2.9,4.7-4.2c3.1,0.4,6.8,0.1,10,0.1
				c0.6,0,1.2,0,1.7-0.3c0.5-0.3,0.8-0.8,1.1-1.2c1.5-2.5,2.1-4.4,4.7-5.1c2.9-0.7,7.3,0.2,10.3,0.3c0.7,0,1.5,0,2.1,0.4
				c0.7,0.3,1.1,0.9,1.6,1.5c4.1,4.7,9.3,7.5,15.1,9.5c6.1,2.1,11.7,5.9,16.4,10.3c-1.2,3.5-1.5,7.9-0.9,11.5
				c0.2,1.2,0.9,2.6,2.1,2.5c2.1-0.3,2.9-4.5,3.3-6.1c0.1-0.4,0.3-0.9,0.7-1c0.4-0.2,0.9,0.2,1.2,0.5c1.6,1.6,3,3.5,3.9,5.6
				c1.1,2.4,1.7,5.2,3.7,6.9c0.5,0.4,1.1,0.8,1.7,0.6c0.8-0.2,1.1-1.3,1.1-2.2c0.1-1.6,0.2-3.2,0.3-4.7c0.1-1.9,0.3-3.8-0.2-5.6
				c-0.5-1.8-1.5-3.4-2.5-4.9C293,143.9,290.5,139.2,286.6,135z"/>
			<circle class="st0" cx="155.6" cy="338.8" r="24.2"/>
		</g>
		<g>
			<g>
				<path class="st0" d="M480.4,236.9c1.9-7.2,8.4-11.6,13.4-16.7c1.7-1.7,6.2-5.8,5.7-8.4c-0.2-0.9-3.3-2.9-3.9-4.1
					c-0.9-1.6-1.3-3.4-1.1-5.3c0.4-3.9,3.6-7.4,7.5-8.2c3.5-0.7,7,0.6,10.5,1.3c4.9,0.9,9.9,0.4,14.9,0.7c5,0.3,11.6,1.9,14.5,5.9
					c1.7,2.3,3.4,5.4,1.5,7.9c-0.5,0.7-1.3,1.1-2.1,1.4c-7.8,2.9-18.6,0.2-24.9,7.1c-3.2,3.4-4.9,7.9-6.6,12.3
					c-3.9,9.9-7.5,19.8-12.3,29.3c-3,6-10.9,10-17.5,8.7c-6.2-1.3-11.5-5.1-16.6-8.9c-3.7-2.7-8-4.9-11.7-7.6
					c-2.1,0.4-4.2,0.7-6.2,1.1c-1.2-3.8-4-7.2-6.6-10.3c-9,0.8-18.2,0.6-26.7-2.6c-0.4,4.9-1.1,9.8-2.1,14.6
					c-0.7,3.3-1.6,6.7-3.8,9.3c-2.2,2.6-6.6,5-9.6,3.4c-3.8,1.5-5.2,6.3-4.5,10.3c0.8,4.7,3.4,9.2,4.9,13.7c1.8,5.5,1.7,11.3,1.2,17
					c-0.7,7.3-2,14.8-0.2,21.9c1.5,6.1,5.2,11.3,7.8,17c1.9,4,4.6,7.7,0.6,10.4c-6.5,4.5-15.8,4.5-23.4,4.8
					c-9.3,0.3-18.7-0.4-27.6-3.4c-1.1-0.4,2.9-6.4,3.5-6.9c1.9-1.8,4.3-2.8,6.6-3.8c4.6-2,12.3-2.4,14.8-7.3
					c1.9-3.8-0.1-10.5-1-14.6c-1.3-5.4-4.6-10.2-6-15.7c-1.8-7,2.4-1.7,1-8.7c-1.6-7.9-5.5-22.7-6.3-30.8c-0.2-1.6,0.4-7.8-0.4-8.6
					c-1.5-1.7-0.6-2.5-2.2-3.6c-2.2-1.5-3.7-3.8-3.9-6.5c-0.2-2.9,0.6-5.7,1.5-8.4c1.9-6.1,0-10.9,2.6-17.1c2.6-6.2,4.2-13.2,4.6-20
					c-3.5-0.9-6.8-2.8-9.1-5.6c0.9-6.9,1.6-14,1.5-20.9c-0.1-6.1-2-12.2-2.8-18.3c-0.9-7-1.3-14.1-1.3-21.1c0-2.6,2.5-18.2,1.1-19.5
					c-3.8-3.5-6.8-8-9.1-12.6c-8.2-1.4-16.3-5.8-21.8-12.1c-1.5-1.7-3.3-3.2-5.2-4.4c-1.3-0.8-2.5-1.6-3.9-2
					c-2.7,1.2-7.3,3.6-8.3-1.8c-0.2-1,0-2,0.5-2.8c0.4-0.7,0.6-1.5,0.6-2.4c0.1-2.4-0.4-5,2.3-6.6c1.2-0.7,2.6-1,4-0.9
					c4.8,0.3,6.8,2,9.2,5.5c1.8,2.5,3.2,5.4,6.6,5.4c2.5,0,4.9-0.7,7.3-0.7c3.7,0,7.3,1.6,9.8,4.3c1.3,1.4,2.5,3.2,4.4,3.5
					c1.1,0.1,2.2-0.4,3.3-0.8c4.4-1.8,9.4-2.5,14.1-2c-4.2-0.5-4.2-11-5.3-13.7c-2-4.6-4.2-6.5-2.7-11.6c1.1-3.9,2.6-9.2,6.3-11.5
					c4-2.5,10.1-3.8,14.7-3.9c5.7-0.1,10.7,2.2,14.1,6.7c3.5,4.5,4.9,10.5,3.7,16c3.3,4.1,2.9,9.8-1.3,13c-0.1,1.7,0,3.6-0.2,5.3
					c6.4,5.5,13.2,10.8,20.9,14.2c15.4,6.8,24.7,23.4,40,30.4c8.1,3.7,15.3,8.9,23.2,12.8c5.1,2.5,23.1,12.8,27.7,14.1
					c2.1,0.6,4.6,1.6,6.8,1.6c2.3,0,4.5-1.3,6.9-0.9c3.5,0.5,5.3,3.2,7.8,5.6c1.4,1.4,2.9,3.1,2.4,5c-0.4,1.7-2.2,2.6-3.8,3.1
					c-2.8,0.9-4.2,4.2-6.7,4.9c-2.5,0.7-5.3-1.3-7.2-2.6c-5.5-3.7-11-7.1-17-9.9c-11.9-5.6-24.5-9.4-37-13.7
					c-5-1.7-8.9-4.7-13.5-7.1c-1.8,1.3-3.6,1.8-5.5,3.1c-3.7-5-13-10.5-19.3-10.6c0.3-0.3-8.1,7.7-4.9,22
					c2.6,11.7,10.9,20.3,17.6,29.5c7.1,9.9,16.3,18.2,26.8,24.4C471,225.4,475.5,230.8,480.4,236.9z"/>
			</g>
			<circle class="st0" cx="459.4" cy="331.5" r="24.5"/>
		</g>
	</g>
</g>
</svg>
