<?xml version="1.0" encoding="UTF-8"?>
<svg id="Layer_2" xmlns="http://www.w3.org/2000/svg" version="1.1" viewBox="0 0 400 400">
  <!-- Generator: Adobe Illustrator 29.8.4, SVG Export Plug-In . SVG Version: 2.1.1 Build 6)  -->
  <defs>
    <style>
      .st0 {
        fill: #fff;
      }
    </style>
  </defs>
  <path class="st0" d="M81,199.4h0s16.6-58.4,16.6-58.4h0s-4.1-24.3-4.1-24.3h0s-3.8-4.5-3.8-4.5l-.5-.6c-19.4,24.3-30.9,55-31,88.4,0,5.6.3,11.1,1,16.5l5.5-.6.3-.3.5-.5,3.7-3.7,11.8-12ZM152,133.7l12.8-11,27.9-23.9-2.1-18.4-1.3-11.5h0s-60.5,14.3-60.5,14.3h0s-31.3,33.2-31.3,33.2l3.8,22.5,50.9-5.2ZM190.2,64.7l27.2-1.8,15.2-1c-10.5-2.5-21.4-3.8-32.6-3.8-26.5,0-51.3,7.3-72.5,19.9l.9,1.2,61.7-14.6ZM283.3,97.9l3.2.3h0s13.5,1.2,13.5,1.2c-15-14.9-33.2-26.4-53.6-33.5l13.8,11.9,23.1,20.1ZM172.4,192.1l54.9,20.1h0s2.1-2,2.1-2l39.3-37.5h0s-14.3-51.6-14.3-51.6l-1.8-.6-57.6-18.3-.2.2-39.6,33.9,13.9,47.4,2.4,8.2,1,.4h0s0,0,0,0ZM116.7,310.1h0s-13.8-6.8-13.8-6.8c6.2,5.8,12.9,11.1,20.1,15.8l-3-4.3-3.2-4.6ZM282,101.7h0l-13.6,10.5-10.2,7.9,1,3.6,13.4,48.3h0s40,31.9,40,31.9l16.8-15.6h0s-.2-4-.2-4v-.2s-2.7-43.5-2.7-43.5l-.3-5.6c-5.9-11.4-13.3-22-22-31.3h0s-20.3-1.8-20.3-1.8l-1.9-.2ZM331.4,192.6l-.4-.4-11.7,10.9-4.9,4.6-14,42-5.2,15.5h0s4.1,27.7,4.1,27.7h0s.3,0,.3,0l9-1.6c19.8-23.6,32.1-53.7,33.2-86.7l-10.4-11.9ZM118.1,236.8h0s-.1-.4-.1-.4l-35.5-33.1-12.5,12.7-1.2,1.2-2.1,31.1c6.3,17.3,15.9,33.1,28,46.5h0s23,11.3,23,11.3h0s0,0,0,0l16.9-15.8.6-.6-9.7-30.1-7.4-23ZM291.6,267.4l-1.3.2-51.2,6.9-2.2,1.9-38.2,32.6,2.8,6.4,7.7,17.7h0s0,0,0,0l14.6,6.8s0,0,0,0c11.1-1.9,21.8-5,31.9-9.3l11.2-9.9,28.9-25.4h0s-4.1-27.8-4.1-27.8h0ZM187.1,341.3c4.2.4,8.5.6,12.9.6s11.3-.3,16.7-1l-9.2-4.3-20.4,4.7ZM195.6,306.4l.6-.5.9-.8h0s34.9-29.7,34.9-29.7h0l2.1-1.8,2-1.7-10.8-56.4-26.9-9.8-29.5-10.8-47.6,39.2,17.6,54.8,49.8,15.4,6.9,2.1Z"/>
  <path d="M200,50c-82.8,0-150,67.2-150,150s67.2,150,150,150,150-67.2,150-150S282.8,50,200,50ZM308.6,291.2l-9,1.6h-.3c0,0,0,0,0,0l-4.1-27.7h0s5.2-15.5,5.2-15.5l14-42,4.9-4.6,11.7-10.9.4.4,10.4,11.9c-1,33-13.3,63.1-33.2,86.7ZM223.8,339.8s0,0,0,0l-14.6-6.8h0s-7.7-17.7-7.7-17.7l-2.8-6.4,38.2-32.6,2.2-1.9,51.2-6.9,1.3-.2h0s4.1,27.8,4.1,27.8h0s-28.9,25.4-28.9,25.4l-11.2,9.9c-10.1,4.3-20.7,7.5-31.9,9.3ZM102.8,303.3l13.8,6.8h0s3.2,4.6,3.2,4.6l3,4.3c-7.2-4.7-13.9-9.9-20.1-15.8ZM117.6,306.3h0s-23-11.3-23-11.3h0c-12.1-13.4-21.7-29.2-28-46.5l2.1-31.1,1.2-1.2,12.5-12.7,35.5,33.1v.4c.1,0,.1,0,.1,0l7.4,23,9.7,30.1-.6.6-16.9,15.8ZM59.1,216.5c-.6-5.4-1-10.9-1-16.5,0-33.5,11.6-64.2,31-88.4l.5.6,3.8,4.5h0s4.1,24.3,4.1,24.3h0s-16.6,58.4-16.6,58.4h0s-11.8,12-11.8,12l-3.7,3.7-.5.5-.3.3-5.5.6ZM128.7,83.2h0s60.5-14.3,60.5-14.3h0s1.3,11.5,1.3,11.5l2.1,18.4-27.9,23.9-12.8,11-50.9,5.2-3.8-22.5,31.3-33.2ZM200,58.2c11.2,0,22.1,1.3,32.6,3.8l-15.2,1-27.2,1.8-61.7,14.6-.9-1.2c21.2-12.6,46-19.9,72.5-19.9ZM304.1,103.7c8.7,9.4,16.1,19.9,22,31.3l.3,5.6,2.7,43.5v.2s.3,4,.3,4h0s-16.8,15.6-16.8,15.6l-40-31.9h0s-13.4-48.3-13.4-48.3l-1-3.6,10.2-7.9,13.6-10.5h0l1.9.2,20.3,1.8h0ZM171.4,191.7l-2.4-8.2-13.9-47.4,39.6-33.9.2-.2,57.6,18.3,1.8.6,14.3,51.6h0s-39.3,37.5-39.3,37.5l-2.1,2h0s-54.9-20.1-54.9-20.1h0s0,0,0,0l-1-.4ZM286.5,98.2h0s-3.2-.3-3.2-.3l-23.1-20.1-13.8-11.9c20.4,7.1,38.6,18.6,53.6,33.5l-13.5-1.2ZM121.3,234.1l47.6-39.2,29.5,10.8,26.9,9.8,10.8,56.4-2,1.7-2.1,1.8h0l-34.9,29.7h0s-.9.8-.9.8l-.6.5-6.9-2.1-49.8-15.4-17.6-54.8ZM207.5,336.6l9.2,4.3c-5.5.6-11.1,1-16.7,1s-8.6-.2-12.9-.6l20.4-4.7Z"/>
</svg>